HIERARCHY
ROOT root
{
	OFFSET	0	13.1	24.9
	CHANNELS 6  Xposition Yposition Zposition Xrotation Yrotation Zrotation
	JOINT spine_1
	{
		OFFSET	0	9.99999	0
		CHANNELS 3  Xrotation Yrotation Zrotation
		JOINT spine_2
		{
			OFFSET	0	112	-10
			CHANNELS 3  Xrotation Yrotation Zrotation
			JOINT spine_3
			{
				OFFSET	0	206.5	19.3
				CHANNELS 3  Xrotation Yrotation Zrotation
				JOINT spine_4
				{
					OFFSET	0	110.4	14.6
					CHANNELS 3  Xrotation Yrotation Zrotation
					JOINT neck_1
					{
						OFFSET	0	71.8	-50.3
						CHANNELS 3  Xrotation Yrotation Zrotation
						JOINT neck_2
						{
							OFFSET	0	86.2	-25.8
							CHANNELS 3  Xrotation Yrotation Zrotation
							JOINT head_ee
							{
								OFFSET	0	179.8	-8.7
								CHANNELS 3  Xrotation Yrotation Zrotation
								End Site
								{
									OFFSET	1	0	0
								}
							}
						}
					}
					JOINT left_clavicle
					{
						OFFSET	-43.2	22.4	-70.8
						CHANNELS 3  Xrotation Yrotation Zrotation
						JOINT left_shoulder
						{
							OFFSET	-93.9	-5.79999	48.7
							CHANNELS 3  Xrotation Yrotation Zrotation
							JOINT left_elbow
							{
								OFFSET	-291.4	-30.8	15.2
								CHANNELS 3  Xrotation Yrotation Zrotation
								JOINT left_lowarm_twist
								{
									OFFSET	-110.7	-3.89999	13.6
									CHANNELS 3  Xrotation Yrotation Zrotation
									JOINT left_hand
									{
										OFFSET	-110.7	-3.89999	13.6
										CHANNELS 3  Xrotation Yrotation Zrotation
										JOINT left_ee
										{
											OFFSET	-80.8	-5.10001	12.1
											CHANNELS 3  Xrotation Yrotation Zrotation
											End Site
											{
												OFFSET	1	0	0
											}
										}
									}
								}
							}
						}
					}
					JOINT right_clavicle
					{
						OFFSET	43.2	22.4	-70.8
						CHANNELS 3  Xrotation Yrotation Zrotation
						JOINT right_shoulder
						{
							OFFSET	93.9	-5.79999	48.7
							CHANNELS 3  Xrotation Yrotation Zrotation
							JOINT right_elbow
							{
								OFFSET	291.4	-30.8	15.2
								CHANNELS 3  Xrotation Yrotation Zrotation
								JOINT right_lowarm_twist
								{
									OFFSET	110.7	-3.89999	13.6
									CHANNELS 3  Xrotation Yrotation Zrotation
									JOINT right_hand
									{
										OFFSET	110.7	-3.89999	13.6
										CHANNELS 3  Xrotation Yrotation Zrotation
										JOINT right_ee
										{
											OFFSET	80.8	-5.10001	12.1
											CHANNELS 3  Xrotation Yrotation Zrotation
											End Site
											{
												OFFSET	1	0	0
											}
										}
									}
								}
							}
						}
					}
				}
			}
		}
	}
	JOINT left_hip
	{
		OFFSET	-82.8	-127.5	0.300001
		CHANNELS 3  Xrotation Yrotation Zrotation
		JOINT left_knee
		{
			OFFSET	-28.2	-396.7	2.2
			CHANNELS 3  Xrotation Yrotation Zrotation
			JOINT left_ankle
			{
				OFFSET	-11.7	-411.3	35.4
				CHANNELS 3  Xrotation Yrotation Zrotation
				JOINT left_toes
				{
					OFFSET	0	-60	-88.6
					CHANNELS 3  Xrotation Yrotation Zrotation
					JOINT left_foot_ee
					{
						OFFSET	-22.5	-16.5	-42.2
						CHANNELS 3  Xrotation Yrotation Zrotation
						End Site
						{
							OFFSET	1	0	0
						}
					}
				}
			}
		}
	}
	JOINT right_hip
	{
		OFFSET	82.8	-127.5	0.300001
		CHANNELS 3  Xrotation Yrotation Zrotation
		JOINT right_knee
		{
			OFFSET	28.2	-396.7	2.2
			CHANNELS 3  Xrotation Yrotation Zrotation
			JOINT right_ankle
			{
				OFFSET	11.7	-411.3	35.4
				CHANNELS 3  Xrotation Yrotation Zrotation
				JOINT right_toes
				{
					OFFSET	0	-60	-88.6
					CHANNELS 3  Xrotation Yrotation Zrotation
					JOINT right_foot_ee
					{
						OFFSET	22.5	-16.5	-42.2
						CHANNELS 3  Xrotation Yrotation Zrotation
						End Site
						{
							OFFSET	1	0	0
						}
					}
				}
			}
		}
	}
}
MOTION
Frames: 5
Frame Time: 0.02
2338.11 723.082 -1458.66 0.316697 62.3151 -9.8665 0.807159 0.939561 5.0477 0.821117 0.616887 5.09708 0.880555 -0.389747 5.1194 0.84425 0.422571 5.1168 -4.85822 16.2707 -4.45685 -4.46217 33.2479 -1.81748 -0.0 0.0 -0.0 -3.28097 23.2869 -1.81843 -29.4623 -14.9809 67.4976 0.780632 -21.1415 0.145681 -34.2841 -2.3648 3.62066 2.85279 6.98484 22.074 -0.0 0.0 -0.0 14.0924 26.8716 -28.1084 1.42901 14.943 -68.4411 1.8816 42.9825 -0.740905 46.2196 0.711657 5.70346 -0.194429 -9.67883 -2.76253 0.0 0.0 0.0 0.643876 25.0165 3.50572 0.16199 -0.00670442 -0.0239547 30.522 4.97424 -3.94435 -36.0092 0.0 0.0 -0.0 0.0 -0.0 6.16119 6.38365 1.80919 -1.49589 -0.0586964 -0.222056 31.1746 11.8397 4.21387 -10.0513 0.0 0.0 0.0 0.0 0.0 
2330.98 721.478 -1456.89 -1.44599 62.2922 -8.42469 1.04188 0.916236 4.94373 1.05527 0.600199 4.99185 1.11104 -0.365365 5.01445 1.07623 0.43014 5.00933 -4.21885 16.2843 -4.74531 -3.71622 33.4224 -2.32654 -0.0 0.0 -0.0 -3.35701 23.3688 -1.90646 -29.6082 -15.4244 67.8042 0.780762 -21.1447 0.145728 -34.2096 -2.35746 3.61455 2.94318 7.61211 22.9355 -0.0 0.0 -0.0 14.143 26.1093 -28.3248 0.385706 15.2868 -68.31 1.88636 43.0547 -0.744154 45.7152 0.679416 5.64753 0.630791 -6.75663 -6.9441 0.0 0.0 0.0 1.91713 23.8385 3.42553 -2.66523 0.100526 0.396637 32.52 2.96693 -4.15667 -36.5746 0.0 0.0 -0.0 0.0 -0.0 7.1393 5.58517 2.33444 -2.13375 -0.0819562 -0.317184 34.5161 10.6012 4.53047 -11.8778 0.0 0.0 0.0 0.0 0.0 
2324.43 723.18 -1454.89 -2.3694 61.9877 -7.38944 1.10825 0.894032 4.80464 1.1209 0.586857 4.85164 1.17365 -0.34629 4.87467 1.14076 0.426981 4.86828 -3.6165 16.4619 -4.47523 -3.03936 33.4809 -2.21289 -0.0 0.0 -0.0 -3.86969 23.3551 -2.61836 -28.5036 -16.3549 69.2654 0.807522 -21.8024 0.155524 -33.5103 -2.2889 3.55669 3.08604 7.72965 23.9961 -0.0 0.0 -0.0 14.1618 26.376 -28.3351 -0.108059 15.7047 -67.9937 1.89509 43.1867 -0.750121 45.5283 0.667591 5.62673 0.998132 -5.82904 -9.00485 0.0 0.0 0.0 0.657912 22.1386 4.07349 -1.35447 0.0533958 0.200999 31.7563 2.01041 -4.08245 -35.2353 0.0 0.0 -0.0 0.0 -0.0 7.78035 5.03295 2.38854 -2.69238 -0.101454 -0.400699 33.8235 10.5766 4.46052 -15.1068 0.0 0.0 0.0 0.0 0.0 
2317.18 721.84 -1453.07 -2.82323 61.7967 -6.97261 1.29331 0.876656 4.77174 1.30579 0.571603 4.8177 1.35619 -0.339399 4.83956 1.32378 0.428262 4.83252 -3.18952 16.4276 -4.81929 -2.53057 33.6298 -2.72264 -0.0 0.0 -0.0 -4.12543 23.2949 -2.98683 -27.7214 -16.8232 69.9717 0.826992 -22.2772 0.162831 -33.1217 -2.25111 3.52419 3.1595 8.19129 24.6825 -0.0 0.0 -0.0 14.2274 26.6594 -28.4525 -0.851592 15.9248 -67.4862 1.87872 42.9388 -0.738944 45.293 0.652812 5.6005 1.36809 -4.67515 -11.0253 0.0 0.0 0.0 0.947007 21.6649 4.02173 -3.10802 0.115432 0.462956 33.3001 0.227679 -4.25017 -34.7211 0.0 0.0 -0.0 0.0 -0.0 8.19416 4.04809 2.55923 -2.75981 -0.103752 -0.410792 35.6354 9.9329 4.6252 -16.9703 0.0 0.0 0.0 0.0 0.0 
2312.83 725.077 -1451.09 -2.27229 61.6023 -7.22519 1.1676 0.813153 4.64547 1.17946 0.516235 4.68767 1.22428 -0.380449 4.70061 1.19365 0.365856 4.70177 -4.01431 17.1424 -4.37375 -3.46203 34.6975 -1.87719 -0.0 0.0 -0.0 -3.88163 22.9552 -2.72486 -26.4986 -17.5348 70.1382 0.841331 -22.6248 0.168306 -33.4254 -2.28062 3.54961 3.05181 9.20361 24.2536 -0.0 0.0 -0.0 14.2531 25.8014 -28.6217 -1.95692 16.111 -67.7957 1.82602 42.127 -0.703317 45.2152 0.647946 5.59182 1.63478 -3.80644 -12.4874 0.0 0.0 0.0 1.0817 21.4313 3.52026 -4.0276 0.144748 0.601038 33.7043 -0.998389 -4.30026 -35.0457 0.0 0.0 -0.0 0.0 -0.0 8.30211 5.58214 2.68459 -4.38358 -0.155501 -0.654612 35.9888 12.2442 4.71495 -18.9114 0.0 0.0 0.0 0.0 0.0 
